<svg width="16" height="16" viewBox="0 0 16 16" fill="none" xmlns="http://www.w3.org/2000/svg">
<path d="M1.37467 8.232C1.31911 8.08232 1.31911 7.91767 1.37467 7.768C2.48135 5.0846 5.09735 3.33374 8 3.33374C10.9026 3.33374 13.5187 5.0846 14.6253 7.768C14.6809 7.91767 14.6809 8.08232 14.6253 8.232C13.5187 10.9154 10.9026 12.6663 8 12.6663C5.09735 12.6663 2.48135 10.9154 1.37467 8.232" stroke="#94A3B8" stroke-width="1.33333" stroke-linecap="round" stroke-linejoin="round"/>
<path d="M6 8C6 9.10383 6.89617 10 8 10C9.10383 10 10 9.10383 10 8C10 6.89617 9.10383 6 8 6C6.89617 6 6 6.89617 6 8V8" stroke="#94A3B8" stroke-width="1.33333" stroke-linecap="round" stroke-linejoin="round"/>
</svg>
