<svg width="28" height="20" viewBox="0 0 28 20" fill="none" xmlns="http://www.w3.org/2000/svg">
<path d="M9.99997 5.44002V2.50002C9.99997 2.03978 10.3731 1.66669 10.8333 1.66669V1.66669" stroke="#0F1724" stroke-width="1.66667" stroke-linecap="round" stroke-linejoin="round"/>
<path d="M15.1975 17.5C17.2302 15.2013 18.3463 12.2352 18.3333 9.16666C18.3333 7.19493 17.1744 5.40734 15.3745 4.6024C13.5746 3.79746 11.4696 4.12551 9.99998 5.44C8.53033 4.12551 6.4254 3.79746 4.62545 4.6024C2.82551 5.40734 1.66669 7.19493 1.66664 9.16666C1.66139 12.2338 2.77653 15.1972 4.80248 17.5C5.57031 18.359 6.82578 18.582 7.84248 18.04C9.19086 17.3206 10.8091 17.3206 12.1575 18.04C13.1742 18.582 14.4296 18.359 15.1975 17.5" stroke="#0F1724" stroke-width="1.66667" stroke-linecap="round" stroke-linejoin="round"/>
</svg>
