<svg width="28" height="20" viewBox="0 0 28 20" fill="none" xmlns="http://www.w3.org/2000/svg">
<path d="M1.66666 10C1.66666 14.5993 5.4007 18.3334 9.99999 18.3334C14.5993 18.3334 18.3333 14.5993 18.3333 10C18.3333 5.40073 14.5993 1.66669 9.99999 1.66669C5.4007 1.66669 1.66666 5.40073 1.66666 10V10" stroke="#0F1724" stroke-width="1.66667" stroke-linecap="round" stroke-linejoin="round"/>
<path d="M6.66666 10C6.66666 11.8397 8.16027 13.3334 9.99999 13.3334C11.8397 13.3334 13.3333 11.8397 13.3333 10C13.3333 8.1603 11.8397 6.66669 9.99999 6.66669C8.16027 6.66669 6.66666 8.1603 6.66666 10V10" stroke="#0F1724" stroke-width="1.66667" stroke-linecap="round" stroke-linejoin="round"/>
<path d="M17.6417 6.66665H9.99999M3.29166 5.04999L7.11666 11.6667M9.06666 18.2833L12.8833 11.6667" stroke="#0F1724" stroke-width="1.66667" stroke-linecap="round" stroke-linejoin="round"/>
</svg>
