<svg width="17" height="15" viewBox="0 0 17 15" fill="none" xmlns="http://www.w3.org/2000/svg">
<path d="M0.75 4.88732C0.750031 3.17878 1.80333 1.64709 3.39871 1.03562C4.99408 0.424153 6.80129 0.859479 7.94325 2.13032C8.02267 2.21524 8.13373 2.26344 8.25 2.26344C8.36627 2.26344 8.47733 2.21524 8.55675 2.13032C9.69534 0.850975 11.507 0.410002 13.1062 1.02294C14.7054 1.63587 15.7582 3.17471 15.75 4.88732C15.75 6.60482 14.625 7.88732 13.5 9.01232L9.381 12.9971C9.0983 13.3218 8.68972 13.5093 8.25922 13.5121C7.82871 13.5148 7.41779 13.3324 7.131 13.0113L3 9.01232C1.875 7.88732 0.75 6.61232 0.75 4.88732" stroke="#94A3B8" stroke-width="1.5" stroke-linecap="round" stroke-linejoin="round"/>
</svg>
